<svg width="320" height="320" version="1.1" xmlns="http://www.w3.org/2000/svg" desc="Created with imagetracer.js version 1.2.6" ><path fill="rgb(0,0,0)" stroke="rgb(0,0,0)" stroke-width="1" opacity="0.7411764705882353" d="M 79.5 60 L 82 60.5 L 79.5 61 L 79.5 60 Z " /><path fill="rgb(0,0,0)" stroke="rgb(0,0,0)" stroke-width="1" opacity="0.7411764705882353" d="M 88.5 60 L 91 60.5 L 88.5 61 L 88.5 60 Z " /><path fill="rgb(0,0,0)" stroke="rgb(0,0,0)" stroke-width="1" opacity="0.7411764705882353" d="M 70.5 64 L 64.5 71 L 70.5 64 Z " /><path fill="rgb(0,0,0)" stroke="rgb(0,0,0)" stroke-width="1" opacity="0.7411764705882353" d="M 99.5 64 L 105.5 71 L 99.5 64 Z " /><path fill="rgb(0,0,0)" stroke="rgb(0,0,0)" stroke-width="1" opacity="0.7411764705882353" d="M 60.5 79 L 61 81.5 L 60 81.5 L 60.5 79 Z " /><path fill="rgb(0,0,0)" stroke="rgb(0,0,0)" stroke-width="1" opacity="0.7411764705882353" d="M 109.5 79 L 110 81.5 L 109 81.5 L 109.5 79 Z " /><path fill="rgb(0,0,0)" stroke="rgb(0,0,0)" stroke-width="1" opacity="0.7411764705882353" d="M 60.5 88 L 61 90.5 L 60 90.5 L 60.5 88 Z " /><path fill="rgb(0,0,0)" stroke="rgb(0,0,0)" stroke-width="1" opacity="0.7411764705882353" d="M 109.5 88 L 110 90.5 L 109 90.5 L 109.5 88 Z " /><path fill="rgb(0,0,0)" stroke="rgb(0,0,0)" stroke-width="1" opacity="0.7411764705882353" d="M 64.5 99 L 70.5 106 L 64.5 99 Z " /><path fill="rgb(0,0,0)" stroke="rgb(0,0,0)" stroke-width="1" opacity="0.7411764705882353" d="M 105.5 99 L 99.5 106 L 105.5 99 Z " /><path fill="rgb(0,0,0)" stroke="rgb(0,0,0)" stroke-width="1" opacity="0.7411764705882353" d="M 229.5 100 L 232 100.5 L 229.5 101 L 229.5 100 Z " /><path fill="rgb(0,0,0)" stroke="rgb(0,0,0)" stroke-width="1" opacity="0.7411764705882353" d="M 238.5 100 L 241 100.5 L 238.5 101 L 238.5 100 Z " /><path fill="rgb(0,0,0)" stroke="rgb(0,0,0)" stroke-width="1" opacity="0.7411764705882353" d="M 220.5 104 L 214.5 111 L 220.5 104 Z " /><path fill="rgb(0,0,0)" stroke="rgb(0,0,0)" stroke-width="1" opacity="0.7411764705882353" d="M 249.5 104 L 255.5 111 L 249.5 104 Z " /><path fill="rgb(0,0,0)" stroke="rgb(0,0,0)" stroke-width="1" opacity="0.7411764705882353" d="M 212.5 114 L 211.5 116 L 212.5 114 Z " /><path fill="rgb(0,0,0)" stroke="rgb(0,0,0)" stroke-width="1" opacity="0.7411764705882353" d="M 195.5 115 L 207 115.5 L 195.5 116 L 195.5 115 Z " /><path fill="rgb(0,0,0)" stroke="rgb(0,0,0)" stroke-width="1" opacity="0.7411764705882353" d="M 185.5 116 L 189 116.5 L 185.5 117 L 185.5 116 Z " /><path fill="rgb(0,0,0)" stroke="rgb(0,0,0)" stroke-width="1" opacity="0.7411764705882353" d="M 177.5 117 L 181 117.5 L 177.5 118 L 177.5 117 Z " /><path fill="rgb(0,0,0)" stroke="rgb(0,0,0)" stroke-width="1" opacity="0.7411764705882353" d="M 259.5 119 L 260 121.5 L 259 121.5 L 259.5 119 Z " /><path fill="rgb(0,0,0)" stroke="rgb(0,0,0)" stroke-width="1" opacity="0.7411764705882353" d="M 156.5 121 L 159 121.5 L 156.5 122 L 156.5 121 Z " /><path fill="rgb(0,0,0)" stroke="rgb(0,0,0)" stroke-width="1" opacity="0.7411764705882353" d="M 259.5 128 L 260 130.5 L 259 130.5 L 259.5 128 Z " /><path fill="rgb(0,0,0)" stroke="rgb(0,0,0)" stroke-width="1" opacity="0.7411764705882353" d="M 211.5 134 L 212.5 136 L 211.5 134 Z " /><path fill="rgb(0,0,0)" stroke="rgb(0,0,0)" stroke-width="1" opacity="0.7411764705882353" d="M 193.5 135 L 203 135.5 L 193.5 136 L 193.5 135 Z " /><path fill="rgb(0,0,0)" stroke="rgb(0,0,0)" stroke-width="1" opacity="0.7411764705882353" d="M 185.5 136 L 188 136.5 L 185.5 137 L 185.5 136 Z " /><path fill="rgb(0,0,0)" stroke="rgb(0,0,0)" stroke-width="1" opacity="0.7411764705882353" d="M 177.5 137 L 181 137.5 L 177.5 138 L 177.5 137 Z " /><path fill="rgb(0,0,0)" stroke="rgb(0,0,0)" stroke-width="1" opacity="0.7411764705882353" d="M 171.5 138 L 174 138.5 L 171.5 139 L 171.5 138 Z " /><path fill="rgb(0,0,0)" stroke="rgb(0,0,0)" stroke-width="1" opacity="0.7411764705882353" d="M 214.5 139 L 220.5 146 L 214.5 139 Z " /><path fill="rgb(0,0,0)" stroke="rgb(0,0,0)" stroke-width="1" opacity="0.7411764705882353" d="M 255.5 139 L 249.5 146 L 255.5 139 Z " /><path fill="rgb(0,0,0)" stroke="rgb(0,0,0)" stroke-width="1" opacity="0.7411764705882353" d="M 229.5 149 L 232 149.5 L 229.5 150 L 229.5 149 Z " /><path fill="rgb(0,0,0)" stroke="rgb(0,0,0)" stroke-width="1" opacity="0.7411764705882353" d="M 238.5 149 L 241 149.5 L 238.5 150 L 238.5 149 Z " /><path fill="rgb(0,0,0)" stroke="rgb(0,0,0)" stroke-width="1" opacity="0.7411764705882353" d="M 121.5 153 L 123 153.5 L 119.5 155 L 119.5 154 L 121.5 153 Z " /><path fill="rgb(0,0,0)" stroke="rgb(0,0,0)" stroke-width="1" opacity="0.7411764705882353" d="M 108.5 162 L 109.5 164 L 108.5 162 Z " /><path fill="rgb(0,0,0)" stroke="rgb(0,0,0)" stroke-width="1" opacity="0.7411764705882353" d="M 111.5 164 L 115 166.5 L 113.5 166 L 111.5 164 Z " /><path fill="rgb(0,0,0)" stroke="rgb(0,0,0)" stroke-width="1" opacity="0.7411764705882353" d="M 116.5 167 L 117.5 169 L 116.5 167 Z " /><path fill="rgb(0,0,0)" stroke="rgb(0,0,0)" stroke-width="1" opacity="0.7411764705882353" d="M 121.5 170 L 122.5 172 L 121.5 170 Z " /><path fill="rgb(0,0,0)" stroke="rgb(0,0,0)" stroke-width="1" opacity="0.7411764705882353" d="M 126.5 173 L 127.5 175 L 126.5 173 Z " /><path fill="rgb(0,0,0)" stroke="rgb(0,0,0)" stroke-width="1" opacity="0.7411764705882353" d="M 131.5 176 L 132.5 178 L 131.5 176 Z " /><path fill="rgb(0,0,0)" stroke="rgb(0,0,0)" stroke-width="1" opacity="0.7411764705882353" d="M 96.5 178 L 97.5 180 L 96.5 178 Z " /><path fill="rgb(0,0,0)" stroke="rgb(0,0,0)" stroke-width="1" opacity="0.7411764705882353" d="M 136.5 179 L 137.5 181 L 136.5 179 Z " /><path fill="rgb(0,0,0)" stroke="rgb(0,0,0)" stroke-width="1" opacity="0.7411764705882353" d="M 101.5 181 L 102.5 183 L 101.5 181 Z " /><path fill="rgb(0,0,0)" stroke="rgb(0,0,0)" stroke-width="1" opacity="0.7411764705882353" d="M 141.5 182 L 142.5 184 L 141.5 182 Z " /><path fill="rgb(0,0,0)" stroke="rgb(0,0,0)" stroke-width="1" opacity="0.7411764705882353" d="M 106.5 184 L 107.5 186 L 106.5 184 Z " /><path fill="rgb(0,0,0)" stroke="rgb(0,0,0)" stroke-width="1" opacity="0.7411764705882353" d="M 144.5 184 L 148 186.5 L 146.5 186 L 144.5 184 Z " /><path fill="rgb(0,0,0)" stroke="rgb(0,0,0)" stroke-width="1" opacity="0.7411764705882353" d="M 109.5 186 L 110.5 188 L 109.5 186 Z " /><path fill="rgb(0,0,0)" stroke="rgb(0,0,0)" stroke-width="1" opacity="0.7411764705882353" d="M 149.5 187 L 153 189.5 L 151.5 189 L 149.5 187 Z " /><path fill="rgb(0,0,0)" stroke="rgb(0,0,0)" stroke-width="1" opacity="0.7411764705882353" d="M 114.5 189 L 115.5 191 L 114.5 189 Z " /><path fill="rgb(0,0,0)" stroke="rgb(0,0,0)" stroke-width="1" opacity="0.7411764705882353" d="M 154.5 190 L 158 192.5 L 156.5 192 L 154.5 190 Z " /><path fill="rgb(0,0,0)" stroke="rgb(0,0,0)" stroke-width="1" opacity="0.7411764705882353" d="M 119.5 192 L 120.5 194 L 119.5 192 Z " /><path fill="rgb(0,0,0)" stroke="rgb(0,0,0)" stroke-width="1" opacity="0.7411764705882353" d="M 159.5 193 L 160.5 195 L 159.5 193 Z " /><path fill="rgb(0,0,0)" stroke="rgb(0,0,0)" stroke-width="1" opacity="0.7411764705882353" d="M 122.5 194 L 126 196.5 L 124.5 196 L 122.5 194 Z " /><path fill="rgb(0,0,0)" stroke="rgb(0,0,0)" stroke-width="1" opacity="0.7411764705882353" d="M 164.5 196 L 165.5 198 L 164.5 196 Z " /><path fill="rgb(0,0,0)" stroke="rgb(0,0,0)" stroke-width="1" opacity="0.7411764705882353" d="M 127.5 197 L 131 199.5 L 129.5 199 L 127.5 197 Z " /><path fill="rgb(0,0,0)" stroke="rgb(0,0,0)" stroke-width="1" opacity="0.7411764705882353" d="M 169.5 199 L 170.5 201 L 169.5 199 Z " /><path fill="rgb(0,0,0)" stroke="rgb(0,0,0)" stroke-width="1" opacity="0.7411764705882353" d="M 132.5 200 L 136 202.5 L 134.5 202 L 132.5 200 Z " /><path fill="rgb(0,0,0)" stroke="rgb(0,0,0)" stroke-width="1" opacity="0.7411764705882353" d="M 174.5 202 L 175.5 204 L 174.5 202 Z " /><path fill="rgb(0,0,0)" stroke="rgb(0,0,0)" stroke-width="1" opacity="0.7411764705882353" d="M 139.5 204 L 140.5 206 L 139.5 204 Z " /><path fill="rgb(0,0,0)" stroke="rgb(0,0,0)" stroke-width="1" opacity="0.7411764705882353" d="M 181.5 206 L 182.5 208 L 181.5 206 Z " /><path fill="rgb(0,0,0)" stroke="rgb(0,0,0)" stroke-width="1" opacity="0.7411764705882353" d="M 144.5 207 L 145.5 209 L 144.5 207 Z " /><path fill="rgb(0,0,0)" stroke="rgb(0,0,0)" stroke-width="1" opacity="0.7411764705882353" d="M 186.5 209 L 187.5 211 L 186.5 209 Z " /><path fill="rgb(0,0,0)" stroke="rgb(0,0,0)" stroke-width="1" opacity="0.7411764705882353" d="M 149.5 210 L 150.5 212 L 149.5 210 Z " /><path fill="rgb(0,0,0)" stroke="rgb(0,0,0)" stroke-width="1" opacity="0.7411764705882353" d="M 191.5 212 L 195 214.5 L 193.5 214 L 191.5 212 Z " /><path fill="rgb(0,0,0)" stroke="rgb(0,0,0)" stroke-width="1" opacity="0.7411764705882353" d="M 154.5 213 L 155.5 215 L 154.5 213 Z " /><path fill="rgb(0,0,0)" stroke="rgb(0,0,0)" stroke-width="1" opacity="0.7411764705882353" d="M 70.5 214 L 64.5 221 L 70.5 214 Z " /><path fill="rgb(0,0,0)" stroke="rgb(0,0,0)" stroke-width="1" opacity="0.7411764705882353" d="M 99.5 214 L 105.5 221 L 99.5 214 Z " /><path fill="rgb(0,0,0)" stroke="rgb(0,0,0)" stroke-width="1" opacity="0.7411764705882353" d="M 159.5 216 L 160.5 218 L 159.5 216 Z " /><path fill="rgb(0,0,0)" stroke="rgb(0,0,0)" stroke-width="1" opacity="0.7411764705882353" d="M 198.5 216 L 199.5 218 L 198.5 216 Z " /><path fill="rgb(0,0,0)" stroke="rgb(0,0,0)" stroke-width="1" opacity="0.7411764705882353" d="M 164.5 219 L 165.5 221 L 164.5 219 Z " /><path fill="rgb(0,0,0)" stroke="rgb(0,0,0)" stroke-width="1" opacity="0.7411764705882353" d="M 203.5 219 L 204.5 221 L 203.5 219 Z " /><path fill="rgb(0,0,0)" stroke="rgb(0,0,0)" stroke-width="1" opacity="0.7411764705882353" d="M 169.5 222 L 170.5 224 L 169.5 222 Z " /><path fill="rgb(0,0,0)" stroke="rgb(0,0,0)" stroke-width="1" opacity="0.7411764705882353" d="M 208.5 222 L 212 224.5 L 210.5 224 L 208.5 222 Z " /><path fill="rgb(0,0,0)" stroke="rgb(0,0,0)" stroke-width="1" opacity="0.7411764705882353" d="M 174.5 225 L 178 227.5 L 176.5 227 L 174.5 225 Z " /><path fill="rgb(0,0,0)" stroke="rgb(0,0,0)" stroke-width="1" opacity="0.7411764705882353" d="M 216.5 227 L 217.5 229 L 216.5 227 Z " /><path fill="rgb(0,0,0)" stroke="rgb(0,0,0)" stroke-width="1" opacity="0.7411764705882353" d="M 60.5 229 L 61 231.5 L 60 231.5 L 60.5 229 Z " /><path fill="rgb(0,0,0)" stroke="rgb(0,0,0)" stroke-width="1" opacity="0.7411764705882353" d="M 109.5 229 L 110 231.5 L 109 231.5 L 109.5 229 Z " /><path fill="rgb(0,0,0)" stroke="rgb(0,0,0)" stroke-width="1" opacity="0.7411764705882353" d="M 181.5 229 L 182.5 231 L 181.5 229 Z " /><path fill="rgb(0,0,0)" stroke="rgb(0,0,0)" stroke-width="1" opacity="0.7411764705882353" d="M 186.5 232 L 187.5 234 L 186.5 232 Z " /><path fill="rgb(0,0,0)" stroke="rgb(0,0,0)" stroke-width="1" opacity="0.7411764705882353" d="M 191.5 235 L 195 237.5 L 193.5 237 L 191.5 235 Z " /><path fill="rgb(0,0,0)" stroke="rgb(0,0,0)" stroke-width="1" opacity="0.7411764705882353" d="M 60.5 238 L 61 240.5 L 60 240.5 L 60.5 238 Z " /><path fill="rgb(0,0,0)" stroke="rgb(0,0,0)" stroke-width="1" opacity="0.7411764705882353" d="M 109.5 238 L 110 240.5 L 109 240.5 L 109.5 238 Z " /><path fill="rgb(0,0,0)" stroke="rgb(0,0,0)" stroke-width="1" opacity="0.7411764705882353" d="M 196.5 238 L 200 240.5 L 198.5 240 L 196.5 238 Z " /><path fill="rgb(0,0,0)" stroke="rgb(0,0,0)" stroke-width="1" opacity="0.7411764705882353" d="M 217.5 241 L 216.5 243 L 217.5 241 Z " /><path fill="rgb(0,0,0)" stroke="rgb(0,0,0)" stroke-width="1" opacity="0.7411764705882353" d="M 203.5 242 L 206 243.5 L 204.5 244 L 203.5 242 Z " /><path fill="rgb(0,0,0)" stroke="rgb(0,0,0)" stroke-width="1" opacity="0.7411764705882353" d="M 64.5 249 L 70.5 256 L 64.5 249 Z " /><path fill="rgb(0,0,0)" stroke="rgb(0,0,0)" stroke-width="1" opacity="0.7411764705882353" d="M 105.5 249 L 99.5 256 L 105.5 249 Z " /><path fill="rgb(0,0,0)" stroke="rgb(0,0,0)" stroke-width="1" opacity="0.7411764705882353" d="M 79.5 259 L 82 259.5 L 79.5 260 L 79.5 259 Z " /><path fill="rgb(0,0,0)" stroke="rgb(0,0,0)" stroke-width="1" opacity="0.7411764705882353" d="M 88.5 259 L 91 259.5 L 88.5 260 L 88.5 259 Z " /><path fill="rgb(0,0,0)" stroke="rgb(0,0,0)" stroke-width="1" opacity="0" d="M 0 0 L 320 0 L 320 320 L 0 320 L 0 0 Z M 80 60 L 71 64 Q 63 69 60 80 Q 58 93 64 100 Q 67 105 74 107 L 75 109 L 75 212 L 71 214 Q 63 219 60 230 Q 58 243 64 250 Q 69 257 80 260 Q 93 262 100 256 Q 107 251 110 241 Q 112 227 106 221 L 95 212 L 96 178 Q 150 213 208 245 Q 214 246 217 243 L 220 238 Q 221 231 218 229 L 109 162 Q 106 163 107 160 L 131 150 L 169 139 L 188 137 L 189 136 L 212 135 L 214 140 Q 219 147 230 150 Q 243 152 250 146 Q 257 141 260 131 Q 262 117 256 111 Q 251 103 241 100 Q 227 98 221 104 Q 215 107 213 114 L 212 115 L 196 115 L 195 116 L 178 117 L 149 123 Q 120 131 97 143 L 95 143 L 95 109 L 100 106 Q 107 101 110 91 Q 112 77 106 71 Q 100 58 80 60 Z " /><path fill="rgb(0,0,0)" stroke="rgb(0,0,0)" stroke-width="1" opacity="0.996078431372549" d="M 82.5 60 L 88 60.5 L 82.5 61 L 82.5 60 Z " /><path fill="rgb(0,0,0)" stroke="rgb(0,0,0)" stroke-width="1" opacity="0.996078431372549" d="M 60.5 82 L 61 87.5 L 60 87.5 L 60.5 82 Z " /><path fill="rgb(0,0,0)" stroke="rgb(0,0,0)" stroke-width="1" opacity="0.996078431372549" d="M 109.5 82 L 110 87.5 L 109 87.5 L 109.5 82 Z " /><path fill="rgb(0,0,0)" stroke="rgb(0,0,0)" stroke-width="1" opacity="0.996078431372549" d="M 232.5 100 L 238 100.5 L 232.5 101 L 232.5 100 Z " /><path fill="rgb(0,0,0)" stroke="rgb(0,0,0)" stroke-width="1" opacity="0.996078431372549" d="M 207.5 115 L 211 115.5 L 207.5 116 L 207.5 115 Z " /><path fill="rgb(0,0,0)" stroke="rgb(0,0,0)" stroke-width="1" opacity="0.996078431372549" d="M 259.5 122 L 260 127.5 L 259 127.5 L 259.5 122 Z " /><path fill="rgb(0,0,0)" stroke="rgb(0,0,0)" stroke-width="1" opacity="0.996078431372549" d="M 232.5 149 L 238 149.5 L 232.5 150 L 232.5 149 Z " /><path fill="rgb(0,0,0)" stroke="rgb(0,0,0)" stroke-width="1" opacity="0.996078431372549" d="M 60.5 232 L 61 237.5 L 60 237.5 L 60.5 232 Z " /><path fill="rgb(0,0,0)" stroke="rgb(0,0,0)" stroke-width="1" opacity="0.996078431372549" d="M 109.5 232 L 110 237.5 L 109 237.5 L 109.5 232 Z " /><path fill="rgb(0,0,0)" stroke="rgb(0,0,0)" stroke-width="1" opacity="0.996078431372549" d="M 219.5 234 L 220 236.5 L 219 236.5 L 219.5 234 Z " /><path fill="rgb(0,0,0)" stroke="rgb(0,0,0)" stroke-width="1" opacity="0.996078431372549" d="M 208.5 244 L 211 244.5 L 208.5 245 L 208.5 244 Z " /><path fill="rgb(0,0,0)" stroke="rgb(0,0,0)" stroke-width="1" opacity="0.996078431372549" d="M 82.5 259 L 88 259.5 L 82.5 260 L 82.5 259 Z " /><path fill="rgb(0,0,0)" stroke="rgb(0,0,0)" stroke-width="1" opacity="1" d="M 78.5 61 Q 88.6 59.4 94.5 62 L 105 70.5 Q 111.2 76.8 109 91.5 Q 106.2 100.2 99.5 105 L 94 108.5 L 95 110.5 L 95 144 Q 118.8 132.1 147.5 124 L 174.5 118 L 181.5 118 L 190.5 116 L 211.5 116 L 213 114.5 L 220.5 105 Q 226.8 98.8 241.5 101 Q 250.2 103.8 255 110.5 Q 261.2 116.8 259 131.5 Q 256.2 140.2 249.5 145 Q 243.2 151.2 228.5 149 Q 219.8 146.2 215 139.5 L 211.5 134 L 209.5 135 L 191.5 135 L 157.5 141 L 128.5 150 L 105 160.5 Q 157 194.5 212.5 225 L 218 229.5 L 219 238.5 L 215.5 243 L 206.5 244 L 95 178 L 95 209.5 L 94 211.5 L 105 220.5 Q 111.2 226.8 109 241.5 Q 106.2 250.2 99.5 255 Q 93.2 261.2 78.5 259 Q 69.8 256.2 65 249.5 Q 58.8 243.2 61 228.5 Q 63.8 219.8 70.5 215 L 76 211.5 L 75 209.5 L 75 110.5 L 76 108.5 L 65 99.5 Q 58.8 93.2 61 78.5 Q 63.8 69.8 70.5 65 L 78.5 61 Z " /></svg>